<svg version="1.1" id="Layer_1" xmlns="http://www.w3.org/2000/svg" xmlns:xlink="http://www.w3.org/1999/xlink" x="0px" y="0px"
	 width="100%" viewBox="0 0 512 512" enable-background="new 0 0 512 512" xml:space="preserve">
<path fill="#209CEE" opacity="1.000000" stroke="none" 
	d="
M1.000002,478.000000 
	C1.000000,413.312439 1.000000,348.624878 1.456337,283.351959 
	C10.360169,283.027008 18.807663,283.287415 27.814039,283.565033 
	C27.098383,286.089203 26.590967,287.803894 26.126127,289.529999 
	C21.239992,307.674194 15.971414,325.726868 11.591303,343.992584 
	C7.393191,361.499298 6.227691,379.197998 11.883285,396.772369 
	C15.760552,408.820740 23.518641,416.768219 35.955315,419.733795 
	C46.622589,422.277466 57.454292,422.939575 68.138451,420.284088 
	C104.224648,411.314972 130.999512,390.073456 149.015564,357.735352 
	C154.612045,347.689850 156.831757,336.796814 154.001816,325.432709 
	C153.261993,322.461884 151.447342,318.368713 149.159348,317.573669 
	C146.975204,316.814667 142.959747,319.055847 140.748795,321.073456 
	C134.358902,326.904541 128.780579,333.633972 122.319923,339.376465 
	C111.141380,349.312408 99.999031,359.399139 87.962852,368.224274 
	C78.851768,374.904724 72.495888,370.962677 70.864952,359.689697 
	C68.818733,345.546234 71.654533,332.222809 76.438210,319.076080 
	C86.504730,291.410797 97.141624,263.931854 106.365486,235.987289 
	C115.081070,209.582565 120.135811,182.401260 116.041855,154.358322 
	C113.094383,134.168716 105.712166,116.064636 89.336937,102.889000 
	C75.210678,91.522896 58.234829,88.411446 40.726200,87.163399 
	C27.043804,86.188095 13.919918,88.863258 1.000000,93.000000 
	C1.000000,74.312439 1.000000,55.624878 1.273488,36.789558 
	C1.906514,36.301533 2.446499,36.027630 2.599549,35.611435 
	C8.455717,19.686367 19.205898,8.666791 35.214317,2.831064 
	C35.641888,2.675196 35.745377,1.630307 36.000000,1.000000 
	C183.020889,1.000000 330.041779,1.000000 477.174316,1.249303 
	C477.595825,1.883222 477.829346,2.477485 478.226624,2.622241 
	C494.911224,8.701181 505.954895,20.116140 511.146454,37.160870 
	C511.276855,37.589043 512.360779,37.726791 513.000000,37.999996 
	C513.000000,55.354229 513.000000,72.708458 512.579346,90.391418 
	C462.793762,97.109375 424.544800,122.096405 396.055328,162.002441 
	C367.934509,201.392059 355.817444,245.994400 356.921265,294.233551 
	C357.114136,302.663239 358.093781,311.074951 358.748138,320.015411 
	C354.931305,316.512939 351.714172,318.381500 348.812408,320.900909 
	C346.562378,322.854462 344.624847,325.173096 342.588226,327.366425 
	C333.752441,336.882111 325.393463,346.897125 316.004913,355.830811 
	C298.488190,372.498901 278.445709,383.503540 253.034805,379.958038 
	C244.650269,378.788147 236.284744,377.481873 226.652451,376.051086 
	C231.699539,372.151031 235.472214,369.426849 239.035202,366.451599 
	C263.219177,346.256866 281.728424,321.309662 299.227478,295.391052 
	C307.615723,282.966827 311.462280,269.295471 313.751373,254.923996 
	C315.626801,243.149933 312.580597,237.705750 301.262085,234.028259 
	C294.837494,231.940872 287.992126,231.008789 281.268768,230.011276 
	C268.817322,228.163925 255.823166,230.678604 243.783035,225.486618 
	C235.381561,221.863693 227.012619,218.161102 218.689316,214.362244 
	C207.760849,209.374329 196.541260,207.671417 184.633942,210.145203 
	C160.279999,215.204834 142.311554,235.819595 141.973404,259.448669 
	C141.763382,274.122620 151.109207,283.443604 165.683136,282.725006 
	C186.319290,281.707520 206.936752,280.291473 227.577301,279.392487 
	C235.529602,279.046173 243.558289,279.252930 251.486679,279.951233 
	C257.476868,280.478821 258.764282,282.163055 256.828094,287.861725 
	C254.896179,293.547821 252.355896,299.654968 248.304779,303.868469 
	C238.517761,314.047791 227.990265,323.579559 217.212280,332.725342 
	C204.139038,343.818817 190.425064,354.153839 177.149033,365.013550 
	C172.464279,368.845642 168.679840,373.461121 168.196487,380.000580 
	C167.877655,384.313934 167.244308,388.603882 166.757065,392.904907 
	C165.779388,401.535339 169.057602,408.256348 176.972122,411.605682 
	C187.041214,415.866760 197.216415,420.807434 207.834656,422.672852 
	C245.513931,429.292389 281.517303,423.806183 314.593506,403.781799 
	C333.381683,392.407349 348.839478,377.583618 356.578918,356.485718 
	C359.524628,348.455597 360.419739,339.673218 362.124237,331.811005 
	C362.234680,332.179413 362.588043,333.406830 362.970062,334.625305 
	C372.366699,364.593842 390.009003,388.183685 417.090454,404.427551 
	C442.201050,419.489349 469.857117,424.011993 498.599426,423.972229 
	C503.399597,423.965576 508.199799,423.989960 513.000000,424.000000 
	C513.000000,441.020905 513.000000,458.041779 512.723511,475.190643 
	C512.068970,475.640594 511.469391,475.893616 511.344574,476.294495 
	C505.867065,493.886139 494.484100,505.588257 476.840088,511.146210 
	C476.408264,511.282196 476.273407,512.360962 476.000000,513.000000 
	C330.312439,513.000000 184.624878,513.000000 38.796822,512.718872 
	C38.176998,512.002319 37.767357,511.330750 37.208202,511.165710 
	C20.352322,506.190338 8.988782,495.390015 2.809376,478.992523 
	C2.625199,478.503784 1.621562,478.323883 1.000002,478.000000 
z"/>
<path fill="#FEFFFF" opacity="1.000000" stroke="none" 
	d="
M513.000000,423.531342 
	C508.199799,423.989960 503.399597,423.965576 498.599426,423.972229 
	C469.857117,424.011993 442.201050,419.489349 417.090454,404.427551 
	C390.009003,388.183685 372.366699,364.593842 362.970062,334.625305 
	C362.588043,333.406830 362.234680,332.179413 362.124237,331.811005 
	C360.419739,339.673218 359.524628,348.455597 356.578918,356.485718 
	C348.839478,377.583618 333.381683,392.407349 314.593506,403.781799 
	C281.517303,423.806183 245.513931,429.292389 207.834656,422.672852 
	C197.216415,420.807434 187.041214,415.866760 176.972122,411.605682 
	C169.057602,408.256348 165.779388,401.535339 166.757065,392.904907 
	C167.244308,388.603882 167.877655,384.313934 168.196487,380.000580 
	C168.679840,373.461121 172.464279,368.845642 177.149033,365.013550 
	C190.425064,354.153839 204.139038,343.818817 217.212280,332.725342 
	C227.990265,323.579559 238.517761,314.047791 248.304779,303.868469 
	C252.355896,299.654968 254.896179,293.547821 256.828094,287.861725 
	C258.764282,282.163055 257.476868,280.478821 251.486679,279.951233 
	C243.558289,279.252930 235.529602,279.046173 227.577301,279.392487 
	C206.936752,280.291473 186.319290,281.707520 165.683136,282.725006 
	C151.109207,283.443604 141.763382,274.122620 141.973404,259.448669 
	C142.311554,235.819595 160.279999,215.204834 184.633942,210.145203 
	C196.541260,207.671417 207.760849,209.374329 218.689316,214.362244 
	C227.012619,218.161102 235.381561,221.863693 243.783035,225.486618 
	C255.823166,230.678604 268.817322,228.163925 281.268768,230.011276 
	C287.992126,231.008789 294.837494,231.940872 301.262085,234.028259 
	C312.580597,237.705750 315.626801,243.149933 313.751373,254.923996 
	C311.462280,269.295471 307.615723,282.966827 299.227478,295.391052 
	C281.728424,321.309662 263.219177,346.256866 239.035202,366.451599 
	C235.472214,369.426849 231.699539,372.151031 226.652451,376.051086 
	C236.284744,377.481873 244.650269,378.788147 253.034805,379.958038 
	C278.445709,383.503540 298.488190,372.498901 316.004913,355.830811 
	C325.393463,346.897125 333.752441,336.882111 342.588226,327.366425 
	C344.624847,325.173096 346.562378,322.854462 348.812408,320.900909 
	C351.714172,318.381500 354.931305,316.512939 358.748138,320.015411 
	C358.093781,311.074951 357.114136,302.663239 356.921265,294.233551 
	C355.817444,245.994400 367.934509,201.392059 396.055328,162.002441 
	C424.544800,122.096405 462.793762,97.109375 512.579346,90.860077 
	C513.000000,105.020897 513.000000,119.041786 512.605591,133.437500 
	C502.230286,135.724686 493.304596,140.050674 484.982178,145.742737 
	C462.569305,161.071976 448.069489,182.462402 438.416870,207.361847 
	C425.648346,240.299026 421.470428,274.156464 430.193970,308.753265 
	C435.711273,330.634399 447.512939,348.338898 468.544220,358.513428 
	C482.642212,365.333771 497.708710,366.071167 513.000000,365.000000 
	C513.000000,384.354218 513.000000,403.708466 513.000000,423.531342 
M361.501068,327.525299 
	C361.501068,327.525299 361.487579,327.487061 361.501068,327.525299 
z"/>
<path fill="#FEFFFF" opacity="1.000000" stroke="none" 
	d="
M1.000000,93.468658 
	C13.919918,88.863258 27.043804,86.188095 40.726200,87.163399 
	C58.234829,88.411446 75.210678,91.522896 89.336937,102.889000 
	C105.712166,116.064636 113.094383,134.168716 116.041855,154.358322 
	C120.135811,182.401260 115.081070,209.582565 106.365486,235.987289 
	C97.141624,263.931854 86.504730,291.410797 76.438210,319.076080 
	C71.654533,332.222809 68.818733,345.546234 70.864952,359.689697 
	C72.495888,370.962677 78.851768,374.904724 87.962852,368.224274 
	C99.999031,359.399139 111.141380,349.312408 122.319923,339.376465 
	C128.780579,333.633972 134.358902,326.904541 140.748795,321.073456 
	C142.959747,319.055847 146.975204,316.814667 149.159348,317.573669 
	C151.447342,318.368713 153.261993,322.461884 154.001816,325.432709 
	C156.831757,336.796814 154.612045,347.689850 149.015564,357.735352 
	C130.999512,390.073456 104.224648,411.314972 68.138451,420.284088 
	C57.454292,422.939575 46.622589,422.277466 35.955315,419.733795 
	C23.518641,416.768219 15.760552,408.820740 11.883285,396.772369 
	C6.227691,379.197998 7.393191,361.499298 11.591303,343.992584 
	C15.971414,325.726868 21.239992,307.674194 26.126127,289.529999 
	C26.590967,287.803894 27.098383,286.089203 27.814039,283.565033 
	C18.807663,283.287415 10.360169,283.027008 1.456337,282.883301 
	C1.000000,268.312439 1.000000,253.624878 1.466933,238.425049 
	C14.065125,238.016983 26.199474,237.998718 38.325645,238.304626 
	C41.689491,238.389465 43.416912,237.605331 44.252029,234.111008 
	C46.179241,226.047104 48.830841,218.150345 50.611118,210.058731 
	C53.257347,198.031265 54.853176,185.920944 53.063938,173.492310 
	C50.415077,155.092453 39.184063,145.595352 20.828163,147.592667 
	C14.138128,148.320618 7.604815,150.488861 1.000001,152.000000 
	C1.000000,132.645767 1.000000,113.291542 1.000000,93.468658 
z"/>
<path fill="#209CEE" opacity="1.000000" stroke="none" 
	d="
M513.000000,364.531342 
	C497.708710,366.071167 482.642212,365.333771 468.544220,358.513428 
	C447.512939,348.338898 435.711273,330.634399 430.193970,308.753265 
	C421.470428,274.156464 425.648346,240.299026 438.416870,207.361847 
	C448.069489,182.462402 462.569305,161.071976 484.982178,145.742737 
	C493.304596,140.050674 502.230286,135.724686 512.605591,133.906158 
	C513.000000,210.687561 513.000000,287.375122 513.000000,364.531342 
z"/>
<path fill="#219CEE" opacity="1.000000" stroke="none" 
	d="
M1.000001,152.468658 
	C7.604815,150.488861 14.138128,148.320618 20.828163,147.592667 
	C39.184063,145.595352 50.415077,155.092453 53.063938,173.492310 
	C54.853176,185.920944 53.257347,198.031265 50.611118,210.058731 
	C48.830841,218.150345 46.179241,226.047104 44.252029,234.111008 
	C43.416912,237.605331 41.689491,238.389465 38.325645,238.304626 
	C26.199474,237.998718 14.065125,238.016983 1.466933,237.956390 
	C1.000000,209.645767 1.000000,181.291550 1.000001,152.468658 
z"/>
<path fill="#000000" opacity="1.000000" stroke="none" 
	d="
M476.468689,513.000000 
	C476.273407,512.360962 476.408264,511.282196 476.840088,511.146210 
	C494.484100,505.588257 505.867065,493.886139 511.344574,476.294495 
	C511.469391,475.893616 512.068970,475.640594 512.723511,475.659302 
	C513.000000,488.259949 513.000000,500.519897 513.000000,513.000000 
	C500.980011,513.000000 488.958649,513.000000 476.468689,513.000000 
z"/>
<path fill="#000101" opacity="1.000000" stroke="none" 
	d="
M513.000000,37.531338 
	C512.360779,37.726791 511.276855,37.589043 511.146454,37.160870 
	C505.954895,20.116140 494.911224,8.701181 478.226624,2.622241 
	C477.829346,2.477485 477.595825,1.883222 477.642944,1.249303 
	C489.595306,1.000000 501.190643,1.000000 513.000000,1.000000 
	C513.000000,13.020048 513.000000,25.041367 513.000000,37.531338 
z"/>
<path fill="#000202" opacity="1.000000" stroke="none" 
	d="
M1.000002,478.468658 
	C1.621562,478.323883 2.625199,478.503784 2.809376,478.992523 
	C8.988782,495.390015 20.352322,506.190338 37.208202,511.165710 
	C37.767357,511.330750 38.176998,512.002319 38.328163,512.718872 
	C25.742102,513.000000 13.484203,513.000000 1.000000,513.000000 
	C1.000000,501.646759 1.000000,490.292053 1.000002,478.468658 
z"/>
<path fill="#000102" opacity="1.000000" stroke="none" 
	d="
M35.531342,1.000000 
	C35.745377,1.630307 35.641888,2.675196 35.214317,2.831064 
	C19.205898,8.666791 8.455717,19.686367 2.599549,35.611435 
	C2.446499,36.027630 1.906514,36.301533 1.273488,36.320900 
	C1.000000,24.406746 1.000000,12.813491 1.000000,1.000000 
	C12.353279,1.000000 23.707981,1.000000 35.531342,1.000000 
z"/>
<path fill="#FEFEFF" opacity="1.000000" stroke="none" 
	d="
M361.494324,327.506165 
	C361.487579,327.487061 361.501068,327.525299 361.494324,327.506165 
z"/>
</svg>